<?xml version="1.0" standalone="no"?>
<!DOCTYPE svg PUBLIC "-//W3C//DTD SVG 20010904//EN"
 "http://www.w3.org/TR/2001/REC-SVG-20010904/DTD/svg10.dtd">
<svg version="1.0" xmlns="http://www.w3.org/2000/svg"
 width="300.000000pt" height="169.000000pt" viewBox="0 0 300.000000 169.000000"
 preserveAspectRatio="xMidYMid meet">
<metadata>
Created by potrace 1.10, written by Peter Selinger 2001-2011
</metadata>
<g transform="translate(0.000000,169.000000) scale(0.100000,-0.100000)"
fill="#000000" stroke="none">
<path d="M418 1234 c-41 -22 -62 -79 -48 -128 10 -34 9 -40 -8 -52 -11 -7 -40
-32 -63 -54 -44 -39 -59 -48 -59 -32 0 14 -48 32 -83 32 -91 -1 -146 -105
-101 -191 26 -52 102 -73 158 -44 28 15 29 14 90 -42 35 -33 60 -64 58 -73
-12 -49 -12 -101 -2 -119 16 -30 69 -61 105 -61 37 0 91 32 100 59 3 12 9 21
13 21 20 -1 126 -39 128 -46 1 -5 5 -22 8 -37 9 -40 63 -64 102 -46 41 20 61
61 48 97 -10 27 -8 32 39 81 l49 52 36 -17 c90 -43 180 51 142 150 -11 31 -51
58 -96 65 -33 6 -38 12 -69 83 -32 75 -33 77 -14 94 25 23 38 72 28 109 -21
74 -117 101 -177 50 -36 -30 -49 -83 -29 -123 12 -26 11 -30 -31 -79 -36 -43
-50 -53 -76 -53 -25 0 -35 8 -56 41 -14 22 -33 50 -43 60 -17 18 -17 22 -4 37
41 45 27 130 -27 163 -37 23 -81 24 -118 3z m109 -46 c14 -13 23 -33 23 -50 0
-36 -40 -78 -75 -78 -14 0 -37 11 -50 25 -69 68 31 170 102 103z m398 -33 c14
-13 25 -36 25 -50 0 -36 -42 -75 -79 -75 -66 0 -97 88 -45 129 35 28 69 26 99
-4z m-440 -127 c40 1 43 -1 84 -59 31 -45 40 -64 32 -72 -13 -13 -14 -56 -2
-76 7 -11 -3 -31 -36 -72 -41 -53 -47 -57 -70 -48 -17 6 -38 5 -64 -2 l-38
-12 -62 60 -61 60 13 36 c10 29 10 41 0 63 -11 25 -10 29 16 50 16 12 46 38
68 57 32 29 43 33 59 25 11 -6 38 -10 61 -10z m389 -33 c25 -2 32 -10 64 -84
l35 -82 -21 -15 c-28 -19 -42 -71 -29 -107 8 -25 4 -33 -39 -81 -44 -49 -52
-53 -82 -49 -24 4 -41 0 -60 -14 -27 -20 -27 -20 -91 2 -54 18 -66 26 -74 51
-5 16 -14 34 -19 41 -7 9 3 30 34 71 38 53 47 59 77 59 24 -1 39 6 52 22 20
25 25 76 9 86 -6 4 10 30 36 61 34 40 52 53 63 48 9 -4 29 -8 45 -9z m-653
-54 c19 -15 24 -29 24 -66 0 -58 -28 -85 -85 -85 -30 0 -44 6 -64 31 -14 17
-26 40 -26 53 0 21 24 64 44 78 21 15 84 8 107 -11z m479 -61 c15 -28 -4 -60
-35 -60 -31 0 -50 32 -35 60 6 12 21 20 35 20 14 0 29 -8 35 -20z m385 -90
c27 -30 25 -88 -4 -111 -52 -42 -125 -10 -125 54 0 49 27 77 74 77 24 0 43 -7
55 -20z m-569 -144 c37 -31 39 -90 5 -117 -36 -29 -95 -25 -120 7 -63 80 39
176 115 110z m312 -143 c4 -37 -19 -58 -53 -49 -36 9 -45 54 -16 77 31 25 65
11 69 -28z"/>
<path d="M1783 896 c-11 -13 -25 -42 -33 -65 -15 -46 -25 -52 -35 -18 -12 37
-55 87 -76 87 -25 0 -35 -24 -54 -129 -19 -105 -19 -140 0 -147 30 -12 43 15
50 106 4 50 11 92 15 95 4 2 20 -25 35 -61 42 -99 70 -97 101 6 10 33 21 60
25 60 4 0 9 -41 11 -90 3 -93 13 -115 46 -103 12 5 14 25 10 107 -8 156 -45
216 -95 152z"/>
<path d="M2785 913 c-11 -3 -24 -9 -28 -13 -5 -4 -9 -63 -9 -131 l-1 -123 32
-15 c27 -13 39 -13 79 -2 56 14 79 35 88 78 5 27 1 37 -24 63 -31 31 -31 31
-12 50 26 26 25 46 -5 75 -24 25 -66 31 -120 18z m84 -46 c14 -18 -14 -45 -50
-49 -19 -2 -25 2 -27 24 -2 19 2 28 15 31 34 9 51 7 62 -6z m18 -126 c7 -9 13
-20 13 -25 0 -17 -35 -35 -67 -36 -32 0 -33 2 -33 38 0 21 3 42 7 46 11 11 66
-5 80 -23z"/>
<path d="M2236 893 c-3 -10 -10 -63 -16 -118 -10 -92 -9 -101 9 -125 15 -21
27 -25 65 -24 51 0 83 22 72 49 -5 13 -14 15 -46 10 l-39 -7 -3 114 c-3 96 -5
113 -20 116 -9 2 -19 -5 -22 -15z"/>
<path d="M2517 868 c-30 -41 -90 -190 -85 -214 6 -31 27 -26 45 10 16 35 18
36 74 36 53 0 59 -2 71 -27 8 -17 21 -28 33 -28 38 0 30 52 -22 155 -56 110
-76 122 -116 68z m57 -60 c9 -17 16 -37 16 -45 0 -7 9 -13 19 -13 16 0 31 -18
31 -36 0 -10 -17 -2 -44 21 -35 30 -46 31 -80 4 l-26 -20 0 21 c0 14 5 20 13
17 12 -4 23 14 41 66 8 24 12 22 30 -15z"/>
<path d="M1241 864 c-18 -15 -31 -35 -31 -49 0 -27 61 -85 89 -85 16 0 31 -18
31 -36 0 -3 -22 -2 -49 2 -60 8 -75 -13 -35 -53 21 -21 31 -24 62 -18 52 10
71 22 78 50 10 39 -17 78 -74 108 -45 25 -51 31 -40 44 9 11 24 14 60 10 53
-7 63 6 30 36 -28 26 -85 21 -121 -9z"/>
<path d="M1460 875 c-13 -16 -18 -185 -6 -223 9 -27 32 -29 46 -2 11 21 16
212 6 229 -10 15 -31 14 -46 -4z"/>
<path d="M2113 878 c-6 -7 -13 -44 -17 -82 -8 -79 -19 -106 -45 -106 -32 0
-49 32 -56 108 -7 76 -16 92 -40 72 -21 -18 -20 -143 1 -180 50 -83 146 -76
178 13 18 50 29 146 20 170 -7 20 -27 22 -41 5z"/>
</g>
</svg>
